<svg width="468.31mm" height="284.64mm" viewBox="0 0 468.31 284.64" xmlns="http://www.w3.org/2000/svg"><defs><clipPath id="b"><path d="M1617 1005h293v283h-293z"/></clipPath><clipPath id="c"><path d="M1617 1005h293v283h-293z"/></clipPath><clipPath id="d"><path d="M1617 1005h293v283h-293z"/></clipPath><clipPath id="e"><path d="M1580 1005h368v283h-368z"/></clipPath><linearGradient id="a" x1="1764" x2="1764" y1="452.5" y2="626.5" gradientUnits="userSpaceOnUse" spreadMethod="reflect"><stop stop-color="#FFC746" offset="0"/><stop stop-color="#FFC600" offset=".5"/><stop stop-color="#E5B600" offset="1"/></linearGradient><linearGradient id="f" x1="-149.95" x2="131.89" y1="154.38" y2="-137.52" gradientUnits="userSpaceOnUse"><stop stop-color="#358F9C" offset="0"/><stop stop-color="#56B8C6" offset="1"/></linearGradient></defs><path d="m386.637 18.075-.715-1.852V8.911h-2.67l-.356-.889-2.445.89h-2.55v.951L272.697 48.58c-3.625-4.11-8.869-6.726-14.803-6.726-10.774 0-19.51 8.63-19.63 19.384L135.567 99h-4.04v1.486l-2.324.837 2.324 6.297v43.947h8.02V108.93l101.51-37.346c2.56 4.226 6.604 7.438 11.477 8.808v153.583h10.774V80.392c8.26-2.322 14.266-9.938 14.266-18.913 0-1.067-.12-2.144-.238-3.211L377.963 21.29v40.19h8.019V18.308z" fill="#358f9c" fill-rule="evenodd" stroke="#0c6774" stroke-width=".706"/><g fill="#0c6774"><path d="M257.919 224.315c-22.357 0-40.481 14.367-40.481 32.014h80.961c0-17.705-18.123-32.014-40.48-32.014z" fill-rule="evenodd"/><path d="M271.703 62.244c0 7.551-6.12 13.678-13.668 13.678s-13.679-6.127-13.679-13.678c0-7.551 6.13-13.673 13.68-13.673s13.667 6.122 13.667 13.673zm-135.991 29.55c-7.549 0-13.666 6.128-13.666 13.679s6.117 13.673 13.666 13.673 13.679-6.122 13.679-13.673-6.13-13.678-13.68-13.678zM381.956.349c-7.548 0-13.678 6.121-13.678 13.673 0 7.55 6.13 13.678 13.678 13.678s13.666-6.127 13.666-13.678c0-7.546-6.117-13.673-13.666-13.673z" fill-rule="evenodd" stroke="#4472c4" stroke-width=".706"/><path d="M.35 239.184h199.03v17.264H.35z"/></g><g fill-rule="evenodd"><path d="m199.394 239.184 5.754-5.754v17.264l-5.754 5.754z" fill="#0a535d"/><path d="m.35 239.184 5.755-5.754h199.03l-5.755 5.754z" fill="#3c858f"/><path d="m.35 239.184 5.755-5.754h199.03v17.264l-5.755 5.754H.35zh199.03l5.755-5.754m-5.755 5.754v17.264" fill="none" stroke="#172c51" stroke-miterlimit="8" stroke-width=".706"/></g><g fill="#fff"><path d="M43.005 249.545q-.155 1.426-1.023 2.183-.862.756-2.301.756-1.005 0-1.78-.502-.769-.502-1.19-1.42-.422-.924-.428-2.108v-1.172q0-1.203.422-2.133t1.209-1.433q.793-.508 1.823-.508 1.45 0 2.288.787.843.781.98 2.164h-.77q-.284-2.3-2.498-2.3-1.228 0-1.96.917-.725.918-.725 2.537v1.104q0 1.562.707 2.492.713.93 1.922.93 1.197 0 1.805-.57.607-.577.75-1.724zm1.271-.639q0-.967.372-1.742.378-.775 1.06-1.203.689-.434 1.557-.434 1.34 0 2.17.942.831.937.831 2.487v.155q0 .974-.378 1.755-.372.775-1.054 1.197t-1.557.421q-1.333 0-2.17-.936-.831-.943-.831-2.493zm.744.205q0 1.203.62 1.978.626.77 1.637.77 1.005 0 1.625-.77.626-.775.626-2.04v-.143q0-.768-.285-1.407t-.8-.986q-.515-.354-1.178-.354-.992 0-1.619.782-.626.775-.626 2.034zm7.609 3.249h-.744v-9.524h.744zm2.846 0h-.744v-9.524h.744zm4.614.125q-.856 0-1.55-.422-.689-.422-1.073-1.172-.385-.757-.385-1.693v-.267q0-.967.372-1.742.379-.775 1.048-1.216.67-.446 1.451-.446 1.222 0 1.935.837.72.831.72 2.276v.415h-4.788v.143q0 1.141.651 1.904.658.756 1.65.756.595 0 1.048-.217.459-.217.83-.694l.466.353q-.819 1.185-2.375 1.185zm-.137-6.326q-.837 0-1.414.614-.57.614-.694 1.65h4.024v-.08q-.03-.968-.551-1.576t-1.365-.608zm6.58 5.699q.775 0 1.296-.434.527-.44.57-1.135h.714q-.031.614-.385 1.123-.353.502-.942.787-.583.286-1.253.286-1.32 0-2.096-.918-.769-.918-.769-2.468v-.224q0-.992.347-1.754.348-.763.993-1.179.65-.415 1.519-.415 1.104 0 1.817.657.72.658.769 1.73h-.713q-.05-.787-.57-1.27-.516-.485-1.303-.485-1.005 0-1.563.726-.552.726-.552 2.034v.217q0 1.284.552 2.003.558.72 1.57.72zm5.215-7.925v1.718h1.389v.608h-1.39v4.47q0 .558.2.831.204.273.675.273.186 0 .602-.062l.03.608q-.29.105-.793.105-.763 0-1.11-.44-.347-.446-.347-1.308v-4.478h-1.234v-.607h1.234v-1.718z" aria-label="Collect"/><path d="M81.948 252.36q-.112-.316-.143-.936-.39.509-.998.788-.602.273-1.278.273-.967 0-1.569-.54-.595-.54-.595-1.364 0-.98.812-1.55.819-.571 2.276-.571H81.8v-.763q0-.72-.447-1.128-.44-.416-1.29-.416-.775 0-1.283.397t-.509.955l-.744-.006q0-.8.744-1.383.744-.59 1.83-.59 1.122 0 1.767.565.651.558.67 1.563v3.175q0 .973.204 1.457v.074zm-2.332-.533q.744 0 1.327-.36.59-.36.856-.96v-1.476h-1.327q-1.11.012-1.737.409-.626.39-.626 1.079 0 .564.416.936.421.372 1.09.372zm5.73.533h-.744v-9.524h.744zm2.846 0h-.744v-9.524h.744z" aria-label="all"/><path d="M96.333 246.283q-.236-.043-.502-.043-.695 0-1.178.39-.478.385-.683 1.123v4.607h-.737v-6.71h.725l.012 1.068q.59-1.191 1.892-1.191.31 0 .49.08zm3.653 6.202q-.856 0-1.55-.422-.689-.422-1.074-1.172-.384-.757-.384-1.693v-.267q0-.967.372-1.742.378-.775 1.048-1.216.67-.446 1.451-.446 1.222 0 1.935.837.72.831.72 2.276v.415h-4.788v.143q0 1.141.651 1.904.657.756 1.65.756.595 0 1.047-.217.46-.217.831-.694l.465.353q-.818 1.185-2.375 1.185zm-.137-6.326q-.837 0-1.414.614-.57.614-.694 1.65h4.024v-.08q-.03-.968-.552-1.576t-1.364-.608zm4.93 6.201h-.744v-9.524h.744zm4.613.125q-.855 0-1.55-.422-.688-.422-1.073-1.172-.384-.757-.384-1.693v-.267q0-.967.372-1.742.378-.775 1.048-1.216.67-.446 1.451-.446 1.222 0 1.935.837.72.831.72 2.276v.415h-4.788v.143q0 1.141.65 1.904.658.756 1.65.756.596 0 1.048-.217.46-.217.831-.694l.465.353q-.818 1.185-2.375 1.185zm-.136-6.326q-.837 0-1.414.614-.57.614-.694 1.65h4.024v-.08q-.03-.968-.552-1.576t-1.364-.608zm6.108 5.178 2.04-5.686h.763l-2.505 6.71h-.602l-2.517-6.71h.763zm8.161 1.023q-.111-.316-.142-.936-.391.509-.999.788-.601.273-1.277.273-.968 0-1.569-.54-.595-.54-.595-1.364 0-.98.812-1.55.819-.571 2.276-.571h1.345v-.763q0-.72-.446-1.128-.44-.416-1.29-.416-.775 0-1.284.397-.508.397-.508.955l-.744-.006q0-.8.744-1.383.744-.59 1.83-.59 1.122 0 1.767.565.65.558.67 1.563v3.175q0 .973.204 1.457v.074zm-2.331-.533q.744 0 1.327-.36.589-.36.855-.96v-1.476h-1.327q-1.11.012-1.736.409-.626.39-.626 1.079 0 .564.415.936.422.372 1.092.372zm5.604-6.176.025 1.147q.378-.62.942-.942.565-.329 1.247-.329 1.079 0 1.606.608.527.607.533 1.823v4.403h-.738v-4.41q-.006-.898-.384-1.339-.372-.44-1.197-.44-.688 0-1.222.434-.527.428-.78 1.16v4.595h-.739v-6.71zm7.424-1.718v1.718h1.39v.608h-1.39v4.47q0 .558.199.831.204.273.676.273.186 0 .601-.062l.031.608q-.291.105-.794.105-.762 0-1.11-.44-.347-.446-.347-1.308v-4.478h-1.234v-.607h1.234v-1.718zm5.718 5.011q0-1.563.694-2.487.701-.93 1.898-.93 1.358 0 2.071 1.073v-3.764h.738v9.524h-.695l-.03-.893q-.714 1.017-2.097 1.017-1.16 0-1.872-.93-.707-.936-.707-2.524zm.75.13q0 1.284.515 2.028.514.738 1.45.738 1.371 0 1.948-1.21v-3.15q-.577-1.308-1.935-1.308-.936 0-1.457.738-.52.732-.52 2.164zm10.838 3.286q-.111-.316-.142-.936-.39.509-.999.788-.601.273-1.277.273-.967 0-1.569-.54-.595-.54-.595-1.364 0-.98.812-1.55.819-.571 2.276-.571h1.346v-.763q0-.72-.447-1.128-.44-.416-1.29-.416-.775 0-1.283.397-.509.397-.509.955l-.744-.006q0-.8.744-1.383.744-.59 1.83-.59 1.122 0 1.767.565.65.558.67 1.563v3.175q0 .973.204 1.457v.074zm-2.331-.533q.744 0 1.327-.36.589-.36.856-.96v-1.476h-1.327q-1.11.012-1.737.409-.626.39-.626 1.079 0 .564.415.936.422.372 1.092.372zm6.051-7.894v1.718h1.39v.608h-1.39v4.47q0 .558.199.831.204.273.676.273.186 0 .601-.062l.031.608q-.291.105-.793.105-.763 0-1.11-.44-.348-.446-.348-1.308v-4.478h-1.234v-.607h1.234v-1.718zm7.162 8.427q-.111-.316-.142-.936-.39.509-.998.788-.602.273-1.278.273-.967 0-1.569-.54-.595-.54-.595-1.364 0-.98.812-1.55.819-.571 2.276-.571h1.346v-.763q0-.72-.447-1.128-.44-.416-1.29-.416-.775 0-1.283.397-.509.397-.509.955l-.744-.006q0-.8.744-1.383.744-.59 1.83-.59 1.122 0 1.767.565.651.558.67 1.563v3.175q0 .973.204 1.457v.074zm-2.331-.533q.744 0 1.327-.36.59-.36.856-.96v-1.476h-1.327q-1.11.012-1.737.409-.626.39-.626 1.079 0 .564.416.936.421.372 1.091.372z" aria-label="relevant data"/></g><path d="M.35 216.695h199.03v17.264H.35z" fill="#0c6774"/><g fill-rule="evenodd"><path d="m199.394 216.695 5.754-5.754v17.263l-5.754 5.755z" fill="#0a535d"/><path d="m.35 216.695 5.755-5.754h199.03l-5.755 5.754z" fill="#3c858f"/><path d="m.35 216.695 5.755-5.754h199.03v17.263l-5.755 5.755H.35zh199.03l5.755-5.754m-5.755 5.754v17.264" fill="none" stroke="#172c51" stroke-miterlimit="8" stroke-width=".706"/></g><g fill="#fff"><path d="m33.124 220.842 3.33 7.969 3.343-7.969h1.017v9.03h-.763v-3.932l.062-4.03-3.36 7.961h-.59l-3.349-7.93.062 3.974v3.956h-.762v-9.029zm14.039 9.029q-.111-.316-.142-.936-.39.508-.998.787-.602.273-1.278.273-.967 0-1.569-.54-.595-.539-.595-1.364 0-.98.812-1.55.819-.57 2.276-.57h1.346v-.763q0-.72-.447-1.129-.44-.415-1.29-.415-.775 0-1.283.397t-.509.955l-.744-.006q0-.8.744-1.383.744-.59 1.83-.59 1.122 0 1.767.565.651.558.67 1.563v3.175q0 .973.204 1.457v.074zm-2.331-.533q.744 0 1.327-.36.589-.36.856-.96v-1.477h-1.327q-1.11.013-1.737.41-.626.39-.626 1.078 0 .565.415.937.422.372 1.092.372zm5.606-6.176.024 1.147q.379-.62.943-.943.564-.328 1.246-.328 1.08 0 1.607.607.527.608.533 1.824v4.402h-.738v-4.409q-.006-.899-.385-1.339-.372-.44-1.196-.44-.689 0-1.222.434-.527.428-.781 1.16v4.594h-.738v-6.71zm10.503 6.709q-.111-.316-.142-.936-.39.508-.998.787-.602.273-1.278.273-.967 0-1.569-.54-.595-.539-.595-1.364 0-.98.812-1.55.819-.57 2.276-.57h1.346v-.763q0-.72-.447-1.129-.44-.415-1.29-.415-.775 0-1.283.397-.509.397-.509.955l-.744-.006q0-.8.744-1.383.744-.59 1.83-.59 1.122 0 1.767.565.651.558.67 1.563v3.175q0 .973.204 1.457v.074zm-2.331-.533q.744 0 1.327-.36.589-.36.856-.96v-1.477h-1.327q-1.11.013-1.737.41-.626.39-.626 1.078 0 .565.415.937.422.372 1.092.372zm4.602-2.884q0-1.575.694-2.492.7-.924 1.898-.924 1.37 0 2.083 1.091l.037-.967h.695v6.573q0 1.296-.726 2.052-.725.757-1.965.757-.701 0-1.34-.316-.632-.31-.998-.831l.415-.447q.788.968 1.873.968.93 0 1.451-.552.521-.546.54-1.52v-.843q-.713.992-2.078.992-1.166 0-1.872-.93-.707-.93-.707-2.511zm.75.13q0 1.284.515 2.028.514.738 1.45.738 1.371 0 1.942-1.227v-3.12q-.26-.645-.75-.98-.49-.34-1.179-.34-.936 0-1.457.738-.521.731-.521 2.164zm9.19 3.411q-.856 0-1.55-.421-.689-.422-1.073-1.172-.385-.757-.385-1.693v-.267q0-.967.372-1.743.379-.775 1.048-1.215.67-.446 1.451-.446 1.222 0 1.935.837.72.83.72 2.276v.415h-4.788v.143q0 1.14.651 1.903.658.757 1.65.757.595 0 1.048-.217.459-.217.83-.695l.466.354q-.819 1.184-2.375 1.184zm-.137-6.325q-.837 0-1.413.614-.57.614-.695 1.65h4.025v-.081q-.031-.967-.552-1.575t-1.365-.608z" aria-label="Manage"/><path d="m80.857 223.162.024 1.091q.373-.608.93-.911.559-.304 1.24-.304 1.588 0 2.016 1.302.36-.626.961-.961.602-.341 1.327-.341 2.158 0 2.202 2.356v4.477h-.744v-4.421q-.007-.9-.391-1.333-.378-.434-1.24-.434-.8.012-1.352.52-.552.503-.614 1.228v4.44h-.744v-4.477q-.006-.862-.41-1.284-.396-.427-1.227-.427-.7 0-1.203.403-.503.396-.744 1.184v4.601h-.744v-6.71zm14.895 5.86q-.67.973-2.14.973-1.072 0-1.63-.62-.559-.626-.571-1.848v-4.365h.738v4.272q0 1.916 1.55 1.916 1.613 0 2.04-1.333v-4.856h.745v6.71h-.72zm3.491.849h-.744v-9.525h.744zm3.169-8.427v1.718h1.389v.607h-1.39v4.471q0 .558.2.831.204.273.675.273.186 0 .602-.062l.03.608q-.29.105-.793.105-.763 0-1.11-.44-.347-.447-.347-1.309v-4.477h-1.234v-.608h1.234v-1.717zm3.757 8.427h-.744v-6.71h.744zm-.875-8.65q0-.211.137-.354.136-.149.372-.149t.372.15q.143.142.143.353t-.143.353q-.136.143-.372.143t-.372-.143q-.137-.142-.137-.353zm8.286 5.364q0 1.568-.695 2.492-.694.918-1.86.918-1.377 0-2.109-.967v3.423h-.737v-9.29h.688l.037.95q.726-1.073 2.102-1.073 1.203 0 1.885.911.689.912.689 2.53zm-.744-.13q0-1.284-.528-2.028t-1.47-.745q-.681 0-1.171.33-.49.328-.75.954v3.218q.266.577.762.881t1.172.304q.937 0 1.457-.744.528-.75.528-2.17zm3.218 3.416h-.745v-9.525h.745z" aria-label="multipl"/><path d="M120.614 229.995q-.856 0-1.55-.421-.689-.422-1.073-1.172-.384-.757-.384-1.693v-.267q0-.967.372-1.743.378-.775 1.048-1.215.67-.446 1.45-.446 1.222 0 1.935.837.72.83.72 2.276v.415h-4.788v.143q0 1.14.652 1.903.657.757 1.649.757.595 0 1.048-.217.459-.217.83-.695l.466.354q-.819 1.184-2.375 1.184zm-.136-6.325q-.838 0-1.414.614-.57.614-.695 1.65h4.025v-.081q-.031-.967-.552-1.575t-1.364-.608z" aria-label="e"/><path d="M133.032 226.585q0 1.568-.695 2.492-.694.918-1.866.918-1.402 0-2.121-1.042l-.031.918h-.695v-9.525h.738v3.79q.707-1.098 2.096-1.098 1.19 0 1.88.911.694.905.694 2.524zm-.745-.13q0-1.328-.514-2.047-.515-.726-1.451-.726-.713 0-1.21.354-.496.347-.75 1.023v3.026q.558 1.265 1.972 1.265.918 0 1.433-.725.52-.726.52-2.17zm5.483-2.661q-.236-.043-.503-.043-.694 0-1.178.39-.478.385-.682 1.123v4.607h-.738v-6.71h.725l.013 1.067q.589-1.19 1.891-1.19.31 0 .49.08zm.638 2.623q0-.967.372-1.742.378-.776 1.06-1.203.689-.434 1.557-.434 1.34 0 2.17.942.831.936.831 2.487v.155q0 .973-.378 1.755-.372.775-1.054 1.196t-1.557.422q-1.333 0-2.17-.936-.83-.943-.83-2.493zm.744.205q0 1.203.62 1.978.627.769 1.637.769 1.005 0 1.625-.77.626-.774.626-2.04v-.142q0-.769-.285-1.408t-.8-.985q-.514-.354-1.178-.354-.992 0-1.618.781-.627.776-.627 2.034zm8.372-.13-.85.818v2.561h-.744v-9.525h.744v6.096l.7-.756 2.568-2.524h.937l-2.847 2.828 3.094 3.881h-.886zm7.1 3.503q-.856 0-1.55-.421-.689-.422-1.073-1.172-.385-.757-.385-1.693v-.267q0-.967.373-1.743.378-.775 1.047-1.215.67-.446 1.452-.446 1.221 0 1.934.837.72.83.72 2.276v.415h-4.788v.143q0 1.14.651 1.903.658.757 1.65.757.595 0 1.048-.217.459-.217.83-.695l.466.354q-.819 1.184-2.375 1.184zm-.136-6.325q-.838 0-1.414.614-.57.614-.695 1.65h4.025v-.081q-.031-.967-.552-1.575t-1.364-.608zm7.2.124q-.235-.043-.502-.043-.695 0-1.178.39-.478.385-.682 1.123v4.607h-.738v-6.71h.725l.013 1.067q.589-1.19 1.891-1.19.31 0 .49.08zm5.189 4.372q0-.552-.447-.887-.44-.335-1.333-.52-.893-.193-1.39-.435-.489-.248-.73-.601-.236-.354-.236-.856 0-.794.663-1.309.664-.52 1.7-.52 1.122 0 1.797.558.683.552.683 1.445h-.745q0-.59-.496-.98-.49-.39-1.24-.39-.732 0-1.178.328-.44.322-.44.843 0 .502.366.781.372.273 1.345.503.98.23 1.464.49.49.26.725.626.236.366.236.887 0 .85-.689 1.358-.682.508-1.785.508-1.172 0-1.904-.564-.726-.57-.726-1.439h.744q.044.651.546 1.017.509.36 1.34.36.775 0 1.252-.341t.478-.862z" aria-label="brokers"/></g><path d="M.35 192.896h199.03v17.264H.35z" fill="#0c6774"/><g fill-rule="evenodd"><path d="m199.394 192.896 5.754-5.754v17.263l-5.754 5.755z" fill="#0a535d"/><path d="m.35 192.896 5.755-5.754h199.03l-5.755 5.754z" fill="#3c858f"/><path d="m.35 192.896 5.755-5.754h199.03v17.263l-5.755 5.755H.35zh199.03l5.755-5.754m-5.755 5.754v17.264" fill="none" stroke="#172c51" stroke-miterlimit="8" stroke-width=".706"/></g><path d="M44.131 203.529h-4.099l-.93 2.53h-.8l3.417-9.029h.725l3.417 9.029h-.793zm-3.863-.651h3.621l-1.81-4.918zm7.454-3.528.025 1.147q.378-.62.942-.943.564-.329 1.247-.329 1.079 0 1.606.608.527.608.533 1.823v4.403h-.738v-4.409q-.006-.899-.384-1.34-.373-.44-1.197-.44-.689 0-1.222.435-.527.427-.781 1.16v4.594h-.738v-6.71zm10.504 6.709q-.111-.316-.142-.936-.39.508-.999.787-.601.273-1.277.273-.967 0-1.569-.54-.595-.539-.595-1.364 0-.98.812-1.55.819-.57 2.276-.57h1.346v-.763q0-.72-.447-1.129-.44-.415-1.29-.415-.775 0-1.283.397t-.509.955l-.744-.007q0-.8.744-1.382.744-.59 1.83-.59 1.122 0 1.767.565.65.558.67 1.562v3.175q0 .974.204 1.458v.074zm-2.331-.533q.744 0 1.327-.36.589-.36.856-.961v-1.476H56.75q-1.11.012-1.737.41-.626.39-.626 1.078 0 .565.415.937.422.372 1.092.372zm5.73.533h-.744v-9.525h.744zm4.142-1.067 1.96-5.643h.8l-2.865 7.851-.149.347q-.552 1.222-1.705 1.222-.267 0-.57-.087l-.007-.614.385.037q.545 0 .88-.272.341-.267.577-.924l.329-.906-2.53-6.653h.812zm7.925-.638q0-.552-.447-.887-.44-.335-1.333-.521-.893-.192-1.39-.434-.49-.248-.73-.602-.237-.353-.237-.855 0-.794.664-1.309.664-.52 1.7-.52 1.121 0 1.797.557.683.552.683 1.445h-.745q0-.589-.496-.98-.49-.39-1.24-.39-.732 0-1.178.329-.44.322-.44.843 0 .502.365.781.373.273 1.346.502.98.23 1.464.49.49.26.725.627.236.366.236.886 0 .85-.689 1.359-.682.508-1.786.508-1.172 0-1.903-.564-.726-.57-.726-1.439h.744q.044.651.546 1.017.509.36 1.34.36.775 0 1.252-.341t.478-.862zm5.011 1.829q-.856 0-1.55-.422-.689-.421-1.073-1.172-.385-.756-.385-1.693v-.266q0-.968.372-1.743.379-.775 1.048-1.215.67-.447 1.451-.447 1.222 0 1.935.838.72.83.72 2.275v.416h-4.788v.142q0 1.141.651 1.904.658.757 1.65.757.595 0 1.048-.217.459-.217.83-.695l.466.354q-.819 1.184-2.375 1.184zm-.137-6.325q-.837 0-1.414.614-.57.614-.694 1.65h4.024v-.081q-.03-.968-.551-1.575t-1.365-.608z" fill="#fff" aria-label="Analyse"/><path d="M85.352 202.642q0-1.562.694-2.486.701-.93 1.898-.93 1.358 0 2.071 1.072v-3.764h.738v9.525h-.694l-.031-.893q-.714 1.017-2.096 1.017-1.16 0-1.873-.93-.707-.937-.707-2.524zm.75.13q0 1.284.515 2.028.515.738 1.451.738 1.37 0 1.947-1.21v-3.15q-.577-1.308-1.935-1.308-.936 0-1.457.738-.52.732-.52 2.165zm7.435 3.287h-.744v-6.71h.744zm-.874-8.65q0-.211.137-.354.136-.149.372-.149t.372.15q.142.142.142.353t-.142.353q-.137.143-.372.143t-.372-.143q-.137-.143-.137-.353zm6.908 6.945q0-.552-.447-.887-.44-.335-1.333-.521-.893-.192-1.389-.434-.49-.248-.732-.602-.235-.353-.235-.855 0-.794.663-1.309.664-.52 1.7-.52 1.122 0 1.798.557.682.552.682 1.445h-.744q0-.589-.496-.98-.49-.39-1.24-.39-.732 0-1.179.329-.44.322-.44.843 0 .502.366.781.372.273 1.345.502.98.23 1.464.49.49.26.725.627.236.366.236.886 0 .85-.688 1.359-.682.508-1.786.508-1.172 0-1.904-.564-.725-.57-.725-1.439h.744q.043.651.545 1.017.509.36 1.34.36.775 0 1.252-.341.478-.341.478-.862zm4.893 1.203q.775 0 1.296-.434.527-.44.57-1.135h.713q-.03.614-.384 1.122-.353.503-.943.788-.582.285-1.252.285-1.321 0-2.096-.918-.77-.918-.77-2.468v-.223q0-.992.348-1.755.347-.763.992-1.178.651-.416 1.52-.416 1.103 0 1.817.658.719.657.768 1.73h-.713q-.05-.788-.57-1.271-.515-.484-1.302-.484-1.005 0-1.563.725-.552.726-.552 2.034v.217q0 1.284.552 2.003.558.72 1.569.72zm7.163-5.575q-.236-.044-.502-.044-.695 0-1.178.391-.478.385-.683 1.123v4.607h-.737v-6.71h.725l.012 1.067q.59-1.19 1.892-1.19.31 0 .49.08zm3.651 6.201q-.855 0-1.55-.422-.688-.421-1.073-1.172-.384-.756-.384-1.693v-.266q0-.968.372-1.743.378-.775 1.048-1.215.67-.447 1.45-.447 1.222 0 1.936.838.719.83.719 2.275v.416h-4.787v.142q0 1.141.65 1.904.658.757 1.65.757.596 0 1.048-.217.46-.217.831-.695l.465.354q-.818 1.184-2.375 1.184zm-.136-6.325q-.837 0-1.414.614-.57.614-.695 1.65h4.025v-.081q-.031-.968-.552-1.575t-1.364-.608zm9.494 2.914q0 1.57-.694 2.493-.695.918-1.86.918-1.377 0-2.109-.967v3.423h-.738v-9.29h.689l.037.95q.725-1.073 2.102-1.073 1.203 0 1.885.911.688.912.688 2.53zm-.744-.13q0-1.283-.527-2.028-.527-.744-1.47-.744-.682 0-1.171.329-.49.329-.75.955v3.218q.266.577.762.88t1.172.305q.936 0 1.457-.744.527-.75.527-2.17zm6.623 3.417q-.111-.316-.142-.936-.39.508-.999.787-.601.273-1.277.273-.967 0-1.569-.54-.595-.539-.595-1.364 0-.98.812-1.55.819-.57 2.276-.57h1.346v-.763q0-.72-.447-1.129-.44-.415-1.29-.415-.775 0-1.283.397-.509.396-.509.955l-.744-.007q0-.8.744-1.382.744-.59 1.83-.59 1.122 0 1.767.565.651.558.67 1.562v3.175q0 .974.204 1.458v.074zm-2.331-.533q.744 0 1.327-.36.589-.36.856-.961v-1.476h-1.327q-1.11.012-1.737.41-.626.39-.626 1.078 0 .565.415.937.422.372 1.092.372zm5.604-6.176.025 1.147q.378-.62.943-.943.564-.329 1.246-.329 1.08 0 1.606.608t.533 1.823v4.403h-.737v-4.409q-.007-.899-.385-1.34-.372-.44-1.197-.44-.688 0-1.221.435-.527.427-.782 1.16v4.594h-.738v-6.71zm8.75 6.207q.775 0 1.296-.434.527-.44.57-1.135h.714q-.031.614-.385 1.122-.353.503-.942.788-.583.285-1.253.285-1.32 0-2.096-.918-.769-.918-.769-2.468v-.223q0-.992.347-1.755.348-.763.992-1.178.652-.416 1.52-.416 1.104 0 1.817.658.719.657.769 1.73h-.714q-.05-.788-.57-1.271-.515-.484-1.302-.484-1.005 0-1.563.725-.552.726-.552 2.034v.217q0 1.284.552 2.003.558.72 1.569.72zm4.892.502h-.744v-6.71h.744zm-.874-8.65q0-.211.136-.354.137-.149.372-.149.236 0 .372.15.143.142.143.353t-.143.353q-.136.143-.372.143-.235 0-.372-.143-.136-.143-.136-.353zm5.488 8.774q-.855 0-1.55-.422-.688-.421-1.073-1.172-.384-.756-.384-1.693v-.266q0-.968.372-1.743.378-.775 1.048-1.215.67-.447 1.45-.447 1.223 0 1.936.838.719.83.719 2.275v.416h-4.787v.142q0 1.141.65 1.904.658.757 1.65.757.596 0 1.048-.217.46-.217.831-.695l.465.354q-.818 1.184-2.375 1.184zm-.136-6.325q-.837 0-1.414.614-.57.614-.694 1.65h4.024v-.081q-.031-.968-.552-1.575t-1.364-.608zm8.119 4.496q0-.552-.447-.887-.44-.335-1.333-.521-.893-.192-1.39-.434-.489-.248-.73-.602-.236-.353-.236-.855 0-.794.663-1.309.664-.52 1.7-.52 1.122 0 1.798.557.682.552.682 1.445h-.745q0-.589-.496-.98-.49-.39-1.24-.39-.732 0-1.178.329-.44.322-.44.843 0 .502.366.781.372.273 1.345.502.98.23 1.464.49.49.26.725.627.236.366.236.886 0 .85-.689 1.359-.682.508-1.785.508-1.172 0-1.904-.564-.726-.57-.726-1.439h.744q.044.651.546 1.017.509.36 1.34.36.775 0 1.252-.341.478-.341.478-.862z" fill="#fff" aria-label="discrepancies"/><path d="M.35 169.878h199.03v17.264H.35z" fill="#0c6774"/><g fill-rule="evenodd"><path d="m199.394 169.878 5.754-5.755v17.264l-5.754 5.755z" fill="#0a535d"/><path d="m.35 169.878 5.755-5.755h199.03l-5.755 5.755z" fill="#3c858f"/><path d="m.35 169.878 5.755-5.755h199.03v17.264l-5.755 5.755H.35zh199.03l5.755-5.755m-5.755 5.755v17.264" fill="none" stroke="#172c51" stroke-miterlimit="8" stroke-width=".706"/></g><g fill="#fff"><path d="M34.626 180.225q-.155 1.426-1.024 2.183-.862.756-2.3.756-1.005 0-1.78-.502-.769-.502-1.19-1.42-.422-.924-.428-2.108v-1.172q0-1.203.421-2.133t1.21-1.433q.793-.508 1.823-.508 1.45 0 2.288.787.843.781.98 2.164h-.77q-.285-2.3-2.498-2.3-1.228 0-1.96.918-.725.917-.725 2.536v1.104q0 1.562.706 2.492.714.93 1.923.93 1.197 0 1.804-.57.608-.577.75-1.724zm2.511 2.815h-.744v-9.524h.744zm6.251 0q-.112-.316-.143-.936-.39.509-.998.788-.602.273-1.278.273-.967 0-1.569-.54-.595-.54-.595-1.364 0-.98.812-1.55.819-.571 2.276-.571h1.346v-.763q0-.719-.447-1.128-.44-.416-1.29-.416-.775 0-1.283.397t-.509.955l-.744-.006q0-.8.744-1.383.745-.59 1.83-.59 1.122 0 1.767.565.651.558.67 1.563v3.175q0 .973.204 1.457v.075zm-2.332-.533q.744 0 1.327-.36.59-.36.856-.96v-1.476h-1.327q-1.11.012-1.736.409-.627.39-.627 1.079 0 .564.416.936.421.372 1.091.372zm5.73.533h-.744v-6.709h.744zm-.874-8.65q0-.21.136-.353.136-.15.372-.15t.372.15q.143.142.143.353t-.143.354q-.136.142-.372.142t-.372-.142q-.136-.143-.136-.354zm3.565 1.941.025 1.091q.372-.607.93-.911.558-.304 1.24-.304 1.588 0 2.016 1.302.36-.626.96-.96.602-.342 1.328-.342 2.158 0 2.201 2.356v4.478h-.744v-4.422q-.006-.899-.39-1.333-.379-.434-1.24-.434-.8.012-1.353.52-.552.503-.614 1.229v4.44h-.744v-4.478q-.006-.862-.41-1.283-.396-.428-1.227-.428-.7 0-1.203.403-.502.397-.744 1.184v4.602h-.744v-6.71z" aria-label="Claim"/><path d="M62.863 179.624q0-1.563.694-2.487.7-.93 1.898-.93 1.358 0 2.07 1.073v-3.764h.739v9.524h-.695l-.03-.892q-.714 1.016-2.097 1.016-1.16 0-1.872-.93-.707-.936-.707-2.524zm.75.13q0 1.284.515 2.028.514.738 1.45.738 1.371 0 1.948-1.21v-3.15q-.577-1.308-1.935-1.308-.936 0-1.457.738-.521.732-.521 2.164zm10.92 2.437q-.67.974-2.14.974-1.072 0-1.63-.62-.558-.627-.57-1.848v-4.366h.737v4.272q0 1.917 1.55 1.917 1.613 0 2.04-1.334v-4.855h.745v6.71h-.72zm3.814-7.578v1.718h1.389v.608h-1.39v4.47q0 .559.2.831.204.273.675.273.186 0 .602-.062l.03.608q-.29.105-.793.105-.763 0-1.11-.44-.347-.446-.347-1.308v-4.478h-1.234v-.607h1.234v-1.718zm3.758 8.427h-.744v-6.709h.744zm-.875-8.65q0-.21.137-.353.136-.15.372-.15t.372.15q.143.142.143.353t-.143.354q-.137.142-.372.142t-.372-.142q-.137-.143-.137-.354zm5.488 8.775q-.856 0-1.55-.422-.688-.422-1.073-1.172-.384-.757-.384-1.693v-.267q0-.967.372-1.742.378-.775 1.048-1.216.67-.446 1.45-.446 1.222 0 1.935.837.72.831.72 2.276v.415h-4.787v.143q0 1.141.65 1.904.658.756 1.65.756.595 0 1.048-.217.459-.217.831-.694l.465.353q-.818 1.185-2.375 1.185zm-.136-6.325q-.837 0-1.414.613-.57.614-.695 1.65h4.025v-.08q-.031-.968-.552-1.576t-1.364-.607zm8.118 4.495q0-.552-.447-.887-.44-.334-1.333-.52-.893-.193-1.39-.434-.49-.249-.731-.602-.236-.353-.236-.856 0-.793.664-1.308.663-.521 1.699-.521 1.122 0 1.798.558.682.552.682 1.445h-.744q0-.59-.496-.98-.49-.39-1.24-.39-.732 0-1.178.328-.44.323-.44.843 0 .503.365.782.372.273 1.346.502.98.23 1.463.49.49.26.726.626.235.366.235.887 0 .85-.688 1.358-.682.509-1.786.509-1.172 0-1.904-.565-.725-.57-.725-1.438h.744q.043.65.546 1.017.508.36 1.34.36.774 0 1.252-.342t.477-.862z" aria-label="duties"/><path d="M100.648 183.04v-6.101h-1.11v-.608h1.11v-.812q0-1.03.52-1.582.528-.551 1.464-.551.422 0 .787.105l-.055.62q-.31-.074-.676-.074-.614 0-.955.384-.341.378-.341 1.08v.83h1.6v.608h-1.6v6.102zm3.262-3.454q0-.967.371-1.742.379-.775 1.06-1.203.69-.434 1.557-.434 1.34 0 2.17.942.832.937.832 2.487v.155q0 .974-.379 1.755-.372.775-1.054 1.197t-1.556.421q-1.334 0-2.17-.936-.832-.942-.832-2.493zm.743.205q0 1.203.62 1.978.627.77 1.638.77 1.004 0 1.624-.77.627-.775.627-2.04v-.143q0-.768-.286-1.407t-.8-.986q-.514-.354-1.178-.354-.992 0-1.618.782-.627.775-.627 2.034zm9.879-2.828q-.236-.043-.503-.043-.694 0-1.178.39-.477.385-.682 1.123v4.607h-.738v-6.709h.726l.012 1.067q.59-1.191 1.891-1.191.31 0 .49.08z" aria-label="for"/><path d="M121.408 183.165q-.856 0-1.55-.422-.689-.422-1.073-1.172-.385-.757-.385-1.693v-.267q0-.967.372-1.742.379-.775 1.048-1.216.67-.446 1.451-.446 1.222 0 1.935.837.72.831.72 2.276v.415h-4.788v.143q0 1.141.651 1.904.658.756 1.65.756.595 0 1.048-.217.459-.217.83-.694l.466.353q-.819 1.185-2.375 1.185zm-.137-6.325q-.837 0-1.413.613-.571.614-.695 1.65h4.025v-.08q-.031-.968-.552-1.576t-1.365-.607zm8.335 6.2q-.112-.316-.143-.936-.39.509-.998.788-.602.273-1.278.273-.967 0-1.569-.54-.595-.54-.595-1.364 0-.98.812-1.55.819-.571 2.276-.571h1.346v-.763q0-.719-.447-1.128-.44-.416-1.29-.416-.775 0-1.283.397t-.509.955l-.744-.006q0-.8.744-1.383.744-.59 1.83-.59 1.122 0 1.767.565.651.558.67 1.563v3.175q0 .973.204 1.457v.075zm-2.332-.533q.744 0 1.327-.36.59-.36.856-.96v-1.476h-1.327q-1.11.012-1.737.409-.626.39-.626 1.079 0 .564.416.936.421.372 1.091.372zm7.379.031q.775 0 1.296-.434.527-.44.57-1.135h.714q-.031.614-.385 1.123-.353.502-.942.787-.583.286-1.253.286-1.32 0-2.096-.918-.769-.918-.769-2.468v-.223q0-.993.348-1.755.347-.763.992-1.179.65-.415 1.519-.415 1.104 0 1.817.657.72.658.769 1.73h-.713q-.05-.787-.57-1.27-.515-.485-1.303-.485-1.005 0-1.563.726-.552.726-.552 2.034v.217q0 1.284.552 2.003.558.72 1.57.72zm4.8-5.072q.366-.602.936-.93.57-.329 1.247-.329 1.079 0 1.606.608.527.607.533 1.823v4.403h-.738v-4.41q-.006-.898-.384-1.339-.372-.44-1.197-.44-.688 0-1.222.434-.527.428-.781 1.16v4.595h-.738v-9.525h.738z" aria-label="each"/><path d="M149.538 183.04h-.744v-6.709h.744zm-.874-8.65q0-.21.136-.353.136-.15.372-.15t.372.15q.143.142.143.353t-.143.354q-.136.142-.372.142t-.372-.142q-.136-.143-.136-.354zm4.043.223v1.718h1.389v.608h-1.39v4.47q0 .559.199.831.205.273.676.273.186 0 .601-.062l.031.608q-.291.105-.793.105-.763 0-1.11-.44-.348-.446-.348-1.308v-4.478h-1.234v-.607h1.234v-1.718zm5.525 8.552q-.856 0-1.55-.422-.689-.422-1.073-1.172-.385-.757-.385-1.693v-.267q0-.967.372-1.742.379-.775 1.048-1.216.67-.446 1.451-.446 1.222 0 1.935.837.72.831.72 2.276v.415h-4.788v.143q0 1.141.651 1.904.658.756 1.65.756.595 0 1.048-.217.459-.217.83-.694l.466.353q-.819 1.185-2.375 1.185zm-.137-6.325q-.837 0-1.413.613-.571.614-.695 1.65h4.025v-.08q-.031-.968-.552-1.576t-1.365-.607zm4.775-.509.025 1.091q.372-.607.93-.911.558-.304 1.24-.304 1.588 0 2.016 1.302.36-.626.961-.96.602-.342 1.327-.342 2.158 0 2.202 2.356v4.478h-.745v-4.422q-.006-.899-.39-1.333-.379-.434-1.24-.434-.8.012-1.352.52-.552.503-.614 1.229v4.44h-.744v-4.478q-.007-.862-.41-1.283-.397-.428-1.227-.428-.701 0-1.203.403-.503.397-.745 1.184v4.602h-.744v-6.71z" aria-label="item"/></g><path d="M.35 146.86h199.03v17.263H.35z" fill="#0c6774"/><g fill-rule="evenodd"><path d="m199.394 146.86 5.754-5.755v17.263l-5.754 5.755z" fill="#0a535d"/><path d="m.35 146.86 5.755-5.755h199.03l-5.755 5.754z" fill="#3c858f"/><path d="m.35 146.86 5.755-5.755h199.03v17.263l-5.755 5.755H.35zh199.03l5.755-5.755m-5.755 5.754v17.264" fill="none" stroke="#172c51" stroke-miterlimit="8" stroke-width=".706"/></g><g fill="#fff"><path d="M15.663 157.207q-.155 1.426-1.023 2.182-.862.757-2.3.757-1.005 0-1.78-.502-.77-.503-1.191-1.42-.422-.924-.428-2.109v-1.172q0-1.203.422-2.133t1.209-1.432q.794-.509 1.823-.509 1.451 0 2.288.788.844.781.98 2.164h-.769q-.285-2.3-2.499-2.3-1.228 0-1.96.917-.725.918-.725 2.536v1.104q0 1.563.707 2.493.713.93 1.922.93 1.197 0 1.805-.57.608-.577.75-1.724zm1.271-.639q0-.967.372-1.743.378-.775 1.06-1.203.689-.434 1.557-.434 1.34 0 2.17.943.831.936.831 2.487v.155q0 .973-.378 1.755-.372.775-1.054 1.196t-1.557.422q-1.333 0-2.17-.936-.83-.943-.83-2.493zm.744.205q0 1.203.62 1.978.627.769 1.638.769 1.004 0 1.624-.77.627-.774.627-2.04v-.142q0-.769-.286-1.408t-.8-.986q-.514-.353-1.178-.353-.992 0-1.618.781-.627.775-.627 2.034zm7.454-3.46.025 1.091q.372-.608.93-.912.558-.303 1.24-.303 1.588 0 2.016 1.302.36-.626.96-.961.602-.341 1.328-.341 2.158 0 2.201 2.356v4.477h-.744v-4.421q-.006-.9-.39-1.333-.379-.434-1.24-.434-.8.012-1.353.52-.551.503-.613 1.228v4.44h-.745v-4.477q-.006-.862-.409-1.284-.397-.428-1.228-.428-.7 0-1.203.403-.502.397-.744 1.185v4.601h-.744v-6.71zm15.974 3.422q0 1.57-.695 2.493-.694.918-1.86.918-1.377 0-2.108-.967v3.423h-.738v-9.29h.688l.037.95q.726-1.073 2.102-1.073 1.203 0 1.886.911.688.912.688 2.53zm-.744-.13q0-1.283-.527-2.028t-1.47-.744q-.682 0-1.172.329-.49.329-.75.955v3.218q.266.577.762.88t1.172.305q.937 0 1.458-.744.527-.75.527-2.17zm3.218 3.417h-.744v-9.525h.744zm4.143-1.066 1.96-5.643h.8l-2.865 7.85-.15.347q-.551 1.222-1.704 1.222-.267 0-.57-.087l-.007-.614.384.038q.546 0 .88-.273.342-.267.578-.924l.328-.906-2.53-6.653h.813z" aria-label="Comply"/><path d="m56.387 158.478.112.577.149-.608 1.612-5.134h.632l1.594 5.09.174.708.142-.652 1.377-5.146h.769l-1.953 6.71h-.633l-1.724-5.321-.08-.366-.081.372-1.693 5.314h-.632l-1.948-6.71h.763zm8.799 1.544h-.744v-6.71h.744zm-.874-8.65q0-.211.136-.354.137-.149.373-.149t.372.15q.142.142.142.353t-.142.353q-.137.143-.372.143t-.373-.143q-.136-.143-.136-.353zm4.043.223v1.717h1.39v.608h-1.39v4.471q0 .558.199.83.204.274.676.274.186 0 .601-.062l.031.607q-.291.106-.794.106-.762 0-1.11-.44-.347-.447-.347-1.309v-4.477h-1.234v-.608h1.234v-1.717zm3.665 2.852q.366-.601.936-.93.57-.328 1.247-.328 1.079 0 1.606.607.527.608.533 1.823v4.403h-.738v-4.409q-.006-.899-.384-1.34-.372-.44-1.197-.44-.688 0-1.222.435-.527.428-.781 1.16v4.594h-.738v-9.525h.738z" aria-label="with"/><path d="M87.893 157.207q-.155 1.426-1.023 2.182-.862.757-2.3.757-1.005 0-1.78-.502-.769-.503-1.19-1.42-.422-.924-.429-2.109v-1.172q0-1.203.422-2.133t1.21-1.432q.793-.509 1.822-.509 1.452 0 2.289.788.843.781.98 2.164h-.77q-.285-2.3-2.499-2.3-1.227 0-1.96.917-.725.918-.725 2.536v1.104q0 1.563.707 2.493.713.93 1.923.93 1.196 0 1.804-.57.608-.577.75-1.724zm5.997 1.966q-.67.973-2.14.973-1.072 0-1.63-.62-.558-.626-.57-1.848v-4.366h.737v4.273q0 1.916 1.55 1.916 1.613 0 2.04-1.333v-4.856h.745v6.71h-.72zm6.678-.856q0-.552-.446-.887-.44-.335-1.333-.52-.893-.193-1.39-.435-.49-.248-.731-.601-.236-.354-.236-.856 0-.794.664-1.309.663-.52 1.699-.52 1.122 0 1.798.558.682.551.682 1.444h-.744q0-.589-.496-.98-.49-.39-1.24-.39-.732 0-1.178.329-.44.322-.44.843 0 .502.365.781.372.273 1.346.503.98.229 1.463.49.49.26.726.626t.236.887q0 .85-.689 1.358-.682.508-1.786.508-1.172 0-1.903-.564-.726-.57-.726-1.439h.744q.044.651.546 1.017.508.36 1.34.36.774 0 1.252-.341.477-.341.477-.862zm3.566-6.722v1.717h1.389v.608h-1.39v4.471q0 .558.2.83.204.274.675.274.186 0 .602-.062l.03.607q-.29.106-.793.106-.763 0-1.11-.44-.347-.447-.347-1.309v-4.477h-1.234v-.608h1.234v-1.717zm2.394 4.973q0-.967.372-1.743.378-.775 1.06-1.203.688-.434 1.556-.434 1.34 0 2.17.943.832.936.832 2.487v.155q0 .973-.378 1.755-.373.775-1.055 1.196-.682.422-1.556.422-1.333 0-2.17-.936-.831-.943-.831-2.493zm.744.205q0 1.203.62 1.978.626.769 1.637.769 1.004 0 1.625-.77.626-.774.626-2.04v-.142q0-.769-.285-1.408-.286-.638-.8-.986-.515-.353-1.178-.353-.993 0-1.619.781-.626.775-.626 2.034zm7.453-3.46.025 1.091q.372-.608.93-.912.558-.303 1.24-.303 1.588 0 2.016 1.302.36-.626.961-.961.602-.341 1.327-.341 2.158 0 2.201 2.356v4.477h-.744v-4.421q-.006-.9-.39-1.333-.379-.434-1.24-.434-.8.012-1.352.52-.552.503-.614 1.228v4.44h-.744v-4.477q-.007-.862-.41-1.284-.397-.428-1.228-.428-.7 0-1.203.403-.502.397-.744 1.185v4.601h-.744v-6.71zm14.597 5.004q0-.552-.446-.887-.44-.335-1.334-.52-.892-.193-1.389-.435-.49-.248-.731-.601-.236-.354-.236-.856 0-.794.664-1.309.663-.52 1.699-.52 1.122 0 1.798.558.682.551.682 1.444h-.744q0-.589-.496-.98-.49-.39-1.24-.39-.732 0-1.179.329-.44.322-.44.843 0 .502.366.781.372.273 1.346.503.98.229 1.463.49.49.26.726.626.235.366.235.887 0 .85-.688 1.358-.682.508-1.786.508-1.172 0-1.904-.564-.725-.57-.725-1.439h.744q.043.651.546 1.017.508.36 1.34.36.774 0 1.252-.341t.477-.862z" aria-label="Customs"/><path d="M140.431 156.735q0 1.57-.694 2.493-.695.918-1.86.918-1.377 0-2.11-.967v3.423h-.737v-9.29h.688l.037.95q.726-1.073 2.103-1.073 1.203 0 1.885.911.688.912.688 2.53zm-.744-.13q0-1.283-.527-2.028-.527-.744-1.47-.744-.682 0-1.172.329-.49.329-.75.955v3.218q.267.577.763.88.496.305 1.172.305.936 0 1.457-.744.527-.75.527-2.17zm5.488-2.66q-.236-.043-.502-.043-.695 0-1.178.39-.478.385-.683 1.123v4.607h-.737v-6.71h.725l.012 1.067q.59-1.19 1.892-1.19.31 0 .49.08zm.639 2.623q0-.967.372-1.743.378-.775 1.06-1.203.689-.434 1.557-.434 1.34 0 2.17.943.831.936.831 2.487v.155q0 .973-.378 1.755-.372.775-1.055 1.196t-1.556.422q-1.333 0-2.17-.936-.831-.943-.831-2.493zm.744.205q0 1.203.62 1.978.626.769 1.637.769 1.005 0 1.625-.77.626-.774.626-2.04v-.142q0-.769-.285-1.408t-.8-.986q-.515-.353-1.178-.353-.992 0-1.619.781-.626.775-.626 2.034zm9.258 2.747q.775 0 1.296-.434.527-.44.57-1.135h.714q-.031.614-.385 1.122-.353.503-.942.788-.583.285-1.253.285-1.32 0-2.096-.918-.769-.917-.769-2.468v-.223q0-.992.347-1.755.348-.763.992-1.178.652-.416 1.52-.416 1.103 0 1.817.658.719.657.769 1.73h-.714q-.05-.788-.57-1.271-.515-.484-1.302-.484-1.005 0-1.563.726-.552.725-.552 2.034v.217q0 1.283.552 2.003.558.719 1.569.719zm6.661.626q-.856 0-1.55-.422-.689-.421-1.073-1.172-.385-.756-.385-1.692v-.267q0-.967.372-1.743.379-.775 1.048-1.215.67-.447 1.451-.447 1.222 0 1.935.838.72.83.72 2.275v.416h-4.788v.143q0 1.14.651 1.903.657.757 1.65.757.595 0 1.048-.217.459-.217.83-.695l.466.354q-.819 1.184-2.375 1.184zm-.137-6.325q-.837 0-1.414.614-.57.614-.694 1.65h4.024v-.081q-.03-.968-.551-1.575t-1.365-.608zm8.116 4.496q0-.552-.446-.887-.44-.335-1.333-.52-.893-.193-1.39-.435-.49-.248-.731-.601-.236-.354-.236-.856 0-.794.664-1.309.663-.52 1.699-.52 1.122 0 1.798.558.682.551.682 1.444h-.744q0-.589-.496-.98-.49-.39-1.24-.39-.732 0-1.178.329-.44.322-.44.843 0 .502.365.781.372.273 1.346.503.98.229 1.463.49.49.26.726.626t.236.887q0 .85-.689 1.358-.682.508-1.786.508-1.172 0-1.903-.564-.726-.57-.726-1.439h.744q.044.651.546 1.017.508.36 1.34.36.774 0 1.252-.341t.477-.862zm6.432 0q0-.552-.446-.887-.44-.335-1.333-.52-.893-.193-1.39-.435-.49-.248-.731-.601-.236-.354-.236-.856 0-.794.664-1.309.663-.52 1.699-.52 1.122 0 1.798.558.682.551.682 1.444h-.744q0-.589-.496-.98-.49-.39-1.24-.39-.732 0-1.178.329-.44.322-.44.843 0 .502.365.781.372.273 1.346.503.98.229 1.463.49.49.26.726.626.235.366.235.887 0 .85-.688 1.358-.682.508-1.786.508-1.172 0-1.903-.564-.726-.57-.726-1.439h.744q.044.651.546 1.017.508.36 1.34.36.774 0 1.252-.341t.477-.862zm5.009 1.829q-.856 0-1.55-.422-.689-.421-1.073-1.172-.385-.756-.385-1.692v-.267q0-.967.372-1.743.379-.775 1.048-1.215.67-.447 1.451-.447 1.222 0 1.935.838.72.83.72 2.275v.416h-4.788v.143q0 1.14.651 1.903.658.757 1.65.757.595 0 1.048-.217.459-.217.83-.695l.466.354q-.819 1.184-2.375 1.184zm-.137-6.325q-.837 0-1.413.614-.57.614-.695 1.65h4.025v-.081q-.031-.968-.552-1.575t-1.365-.608zm8.12 4.496q0-.552-.447-.887-.44-.335-1.333-.52-.893-.193-1.39-.435-.49-.248-.731-.601-.236-.354-.236-.856 0-.794.664-1.309.663-.52 1.699-.52 1.122 0 1.798.558.682.551.682 1.444h-.744q0-.589-.496-.98-.49-.39-1.24-.39-.732 0-1.178.329-.44.322-.44.843 0 .502.365.781.372.273 1.346.503.98.229 1.463.49.49.26.726.626.235.366.235.887 0 .85-.688 1.358-.682.508-1.786.508-1.172 0-1.904-.564-.725-.57-.725-1.439h.744q.043.651.546 1.017.508.36 1.34.36.774 0 1.252-.341t.477-.862z" aria-label="processes"/></g><path d="M1456.5 481.5c0-16.017 12.98-29.001 29-29.001h557c16.02 0 29 12.984 29 29.001v116c0 16.017-12.98 29.001-29 29.001h-557c-16.02 0-29-12.984-29-29.001z" fill="url(#a)" fill-rule="evenodd" stroke="#ffc000" stroke-miterlimit="8" stroke-width="1.333" transform="translate(-79.95 -58.521) scale(.26458)"/><path d="M319.731 89.048h5.945v.86h-6.97V77.87h1.025z" aria-label="L"/><path d="M328.472 89.908h-.992v-8.946h.992zm-1.166-11.534q0-.28.182-.471.182-.198.496-.198t.497.198q.19.19.19.471t-.19.472q-.182.19-.497.19t-.496-.19-.182-.472zm9.211 9.261q0-.736-.595-1.183-.587-.446-1.778-.694-1.19-.257-1.852-.579-.653-.33-.975-.802-.315-.471-.315-1.141 0-1.058.885-1.745.885-.694 2.265-.694 1.497 0 2.398.744.91.736.91 1.926h-.992q0-.785-.662-1.306-.653-.52-1.654-.52-.975 0-1.57.437-.588.43-.588 1.125 0 .67.488 1.042.496.363 1.795.67 1.306.305 1.95.653.654.347.968.835t.314 1.182q0 1.133-.917 1.81-.91.679-2.382.679-1.562 0-2.538-.753-.967-.76-.967-1.918h.992q.058.868.727 1.356.678.48 1.786.48 1.034 0 1.67-.455t.637-1.15zm4.754-8.963v2.29h1.852v.81h-1.852v5.962q0 .744.265 1.108.273.363.901.363.248 0 .802-.082l.042.81q-.39.14-1.059.14-1.017 0-1.48-.586-.463-.596-.463-1.745v-5.97h-1.645v-.81h1.645v-2.29z" aria-label="ist"/><path d="M353.458 81.806q-.314-.058-.67-.058-.925 0-1.57.52-.637.513-.91 1.497v6.143h-.984v-8.946h.968l.016 1.423q.786-1.588 2.522-1.588.414 0 .653.108zm4.87 8.268q-1.14 0-2.067-.562-.917-.563-1.43-1.563-.513-1.009-.513-2.257v-.356q0-1.29.496-2.323.505-1.034 1.398-1.62.893-.596 1.934-.596 1.63 0 2.58 1.116.96 1.108.96 3.035v.554h-6.384v.19q0 1.521.868 2.538.877 1.009 2.2 1.009.793 0 1.397-.29.612-.289 1.108-.926l.62.472q-1.091 1.579-3.167 1.579zm-.182-8.434q-1.116 0-1.885.819-.76.818-.926 2.2h5.366v-.108q-.041-1.29-.736-2.1t-1.819-.81zm7.004-2.968v2.29h1.852v.81h-1.852v5.962q0 .744.264 1.108.273.363.902.363.248 0 .802-.082l.04.81q-.388.14-1.057.14-1.017 0-1.48-.586-.463-.596-.463-1.745v-5.97h-1.646v-.81h1.646v-2.29zm9.657 10.104q-.892 1.298-2.852 1.298-1.43 0-2.175-.827-.744-.835-.76-2.464v-5.82h.984v5.696q0 2.555 2.067 2.555 2.15 0 2.72-1.778v-6.474h.992v8.946h-.959zm7.681-6.97q-.314-.058-.67-.058-.926 0-1.57.52-.637.513-.91 1.497v6.143h-.984v-8.946h.968l.016 1.423q.786-1.588 2.522-1.588.413 0 .653.108zm2.506-.844.033 1.53q.504-.827 1.257-1.257.752-.438 1.661-.438 1.44 0 2.142.81t.711 2.431v5.87h-.984V84.03q-.008-1.199-.513-1.786-.496-.587-1.595-.587-.918 0-1.63.579-.702.57-1.04 1.546v6.127h-.985v-8.946zm11.824 9.112q-1.141 0-2.067-.562-.918-.563-1.43-1.563-.513-1.009-.513-2.257v-.356q0-1.29.496-2.323.504-1.034 1.397-1.62.893-.596 1.935-.596 1.629 0 2.58 1.116.959 1.108.959 3.035v.554h-6.383v.19q0 1.521.868 2.538.876 1.009 2.2 1.009.793 0 1.396-.29.612-.289 1.108-.926l.62.472q-1.09 1.579-3.166 1.579zm-.182-8.434q-1.116 0-1.885.819-.76.818-.926 2.2h5.366v-.108q-.042-1.29-.736-2.1t-1.82-.81zm5.066 3.713q0-2.084.926-3.316.934-1.24 2.53-1.24 1.81 0 2.762 1.43v-5.019h.984v12.7h-.926l-.042-1.19q-.95 1.356-2.794 1.356-1.546 0-2.497-1.24-.943-1.25-.943-3.366zm1 .173q0 1.712.687 2.704.686.984 1.934.984 1.828 0 2.597-1.612v-4.2q-.77-1.745-2.58-1.745-1.249 0-1.943.984-.695.975-.695 2.885z" aria-label="returned"/><path d="M416.948 89.908h-.992v-8.946h.992zm-1.166-11.534q0-.28.182-.471.182-.198.496-.198t.496.198q.19.19.19.471t-.19.472q-.182.19-.496.19t-.496-.19-.182-.472zm5.391.298v2.29h1.852v.81h-1.852v5.962q0 .744.264 1.108.273.363.902.363.248 0 .802-.082l.04.81q-.388.14-1.057.14-1.017 0-1.48-.586-.463-.596-.463-1.745v-5.97h-1.646v-.81h1.646v-2.29zm7.367 11.402q-1.141 0-2.067-.562-.918-.563-1.43-1.563-.513-1.009-.513-2.257v-.356q0-1.29.496-2.323.504-1.034 1.397-1.62.893-.596 1.935-.596 1.629 0 2.58 1.116.959 1.108.959 3.035v.554h-6.383v.19q0 1.521.868 2.538.876 1.009 2.199 1.009.794 0 1.397-.29.612-.289 1.108-.926l.62.472q-1.091 1.579-3.166 1.579zm-.182-8.434q-1.116 0-1.885.819-.761.818-.926 2.2h5.366v-.108q-.042-1.29-.736-2.1t-1.82-.81zm6.366-.678.033 1.456q.496-.81 1.24-1.216t1.654-.405q2.117 0 2.687 1.736.48-.835 1.282-1.281.802-.455 1.77-.455 2.876 0 2.934 3.142v5.97h-.992v-5.896q-.008-1.199-.52-1.777-.505-.58-1.654-.58-1.067.017-1.803.695-.736.67-.818 1.637v5.92h-.992V83.94q-.009-1.15-.546-1.712-.53-.57-1.637-.57-.935 0-1.604.537-.67.53-.992 1.58v6.135h-.993v-8.946zm19.463 6.673q0-.736-.596-1.183-.587-.446-1.777-.694-1.19-.257-1.852-.579-.653-.33-.976-.802-.314-.471-.314-1.141 0-1.058.885-1.745.884-.694 2.265-.694 1.497 0 2.398.744.91.736.91 1.926h-.993q0-.785-.661-1.306-.654-.52-1.654-.52-.976 0-1.57.437-.588.43-.588 1.125 0 .67.488 1.042.496.363 1.794.67 1.306.305 1.951.653.654.347.968.835t.314 1.182q0 1.133-.918 1.81-.91.679-2.381.679-1.563 0-2.538-.753-.968-.76-.968-1.918h.992q.058.868.728 1.356.678.48 1.786.48 1.033 0 1.67-.455t.637-1.15z" aria-label="items"/><path d="M27.104 283.144q.04-.436.288-.863.258-.436.566-.684.863.575 1.915.962t2.073.387q1.23 0 1.925-.536t.695-1.389q0-.744-.497-1.29-.486-.555-1.369-.922l-2.39-1.003q-1.251-.535-1.985-1.349-.734-.823-.734-2.083 0-1.062.555-1.925.556-.873 1.558-1.38t2.331-.505q1.22 0 2.302.317 1.082.308 1.856.695-.01.426-.219.863-.198.436-.516.714-.783-.387-1.706-.655-.913-.277-1.677-.277-1.121 0-1.786.555t-.665 1.38q0 .684.477 1.11.486.427 1.23.745l2.361.982q.834.347 1.499.863.674.516 1.071 1.22t.397 1.608q0 1.13-.526 2.024t-1.597 1.409-2.709.516q-1.23 0-2.49-.397-1.25-.407-2.233-1.092zm12.343-10.348q0-.655.208-.952.219-.298.834-.298h.724l.13.129v10.388q0 .387.178.625.188.228.625.228h1.399q.158.437.158.982 0 .11-.01.219 0 .109-.03.198-.485.07-1.041.11-.546.039-1.131.039-.982 0-1.518-.496-.526-.496-.526-1.478zm4.356 1.776q.089.377.089.714 0 .378-.09.725l-3.194-.04-2.61.04q-.08-.347-.08-.725 0-.337.08-.714l2.62.05zm1.487 7.144q0-1.131.497-1.856t1.35-1.061q.853-.348 1.934-.348.566 0 1.27.05.714.05 1.31.198v1.31q-.536-.129-1.21-.169t-1.26-.04q-.934 0-1.45.477-.505.466-.505 1.3 0 .635.347 1.071.357.437 1.032.437.734 0 1.557-.516.834-.516 1.39-1.518l.307 1.528q-.357.417-.883.893t-1.22.823q-.695.338-1.558.338-.982 0-1.627-.437t-.963-1.101q-.317-.675-.317-1.38zm8.206 1.805q-.08.258-.297.556-.209.298-.457.447-.605-.14-.972-.477-.357-.337-.536-.793-.179-.467-.208-.993v-4.494q0-.973-.437-1.39t-1.21-.416q-.764 0-1.568.228-.794.228-1.578.546-.238-.238-.406-.645-.159-.417-.179-.794.546-.238 1.23-.446.695-.209 1.43-.338.743-.129 1.418-.129.982 0 1.706.367.725.358 1.112 1.092.397.734.397 1.865v4.068q0 .576.099 1.002.109.427.456.744zm3.392-9.018q.615 0 .843.367.239.357.239 1.012v8.493q-.397.08-.953.08-.565 0-.982-.08v-9.743l.129-.13zm6.896 7.818q0 .516.06.972.069.457.247.794-.218.179-.546.298t-.674.119q-.566 0-.804-.308-.228-.317-.228-.932v-5.14q0-1.032-.258-1.488-.258-.466-1.012-.466-.526 0-1.121.248-.595.238-1.121.684t-.854 1.032v-1.885q.665-.774 1.637-1.3.983-.536 2.054-.536.933 0 1.508.437.576.427.844 1.16.268.725.268 1.628zm10.368-.724q0 .575.11 1.1.118.527.446.824-.08.258-.298.556-.208.298-.456.447-.933-.209-1.32-.933-.377-.724-.377-1.647v-12.035l.119-.13h.734q.615 0 .824.308.218.298.218.953zm-7.977-1.995q0-1.776.556-2.926t1.428-1.697q.873-.556 1.796-.556.943 0 1.736.387t1.489.903l-.199 1.558q-.565-.447-1.28-.863t-1.488-.417q-.556 0-1.032.387t-.754 1.19-.278 2.044q0 1.2.258 1.955.258.744.685 1.091t.913.348q.516 0 1.071-.278.566-.278 1.042-.844.476-.575.724-1.448l.387 1.488q-.188.665-.704 1.29-.516.615-1.27 1.022-.754.397-1.687.397-1.121 0-1.875-.635-.754-.645-1.141-1.776-.377-1.131-.377-2.62zm10.488 2.114q0-1.131.496-1.856t1.35-1.061q.853-.348 1.934-.348.566 0 1.27.05.714.05 1.31.198v1.31q-.536-.129-1.21-.169t-1.26-.04q-.933 0-1.45.477-.505.466-.505 1.3 0 .635.347 1.071.357.437 1.032.437.734 0 1.557-.516.834-.516 1.39-1.518l.307 1.528q-.357.417-.883.893t-1.22.823q-.695.338-1.558.338-.982 0-1.627-.437t-.963-1.101q-.317-.675-.317-1.38zm8.205 1.805q-.08.258-.298.556-.208.298-.456.447-.605-.14-.972-.477-.358-.337-.536-.793-.179-.467-.209-.993v-4.494q0-.973-.436-1.39t-1.21-.416q-.765 0-1.568.228-.794.228-1.578.546-.238-.238-.407-.645-.158-.417-.178-.794.546-.238 1.23-.446.695-.209 1.429-.338.744-.129 1.419-.129.982 0 1.706.367.725.358 1.112 1.092.396.734.396 1.865v4.068q0 .576.1 1.002.109.427.456.744zm8.088-8.959q0 .397-.11.923-.109.516-.357.903-.188-.04-.387-.05-.198-.02-.396-.03-.586 0-1.022.248-.427.238-.725.625t-.506.834q-.198.446-.327.863l-.288-.367q.02-.685.189-1.4t.526-1.319q.367-.605.942-.972.585-.367 1.439-.367.248 0 .496.03.248.02.526.079zm-6.102.923q.07-.268.278-.576.218-.307.446-.466.953.228 1.41 1.002.465.764.535 1.915v7.014q-.407.08-.963.08-.565 0-.972-.08v-6.846q0-.783-.238-1.29-.228-.515-.496-.753zm14.92 6.112q0 .575.11 1.1.118.527.446.824-.08.258-.298.556-.208.298-.456.447-.933-.209-1.32-.933-.377-.724-.377-1.647v-12.035l.12-.13h.733q.615 0 .824.308.218.298.218.953zm-7.977-1.995q0-1.776.556-2.926t1.428-1.697q.874-.556 1.796-.556.943 0 1.737.387t1.488.903l-.199 1.558q-.565-.447-1.28-.863t-1.488-.417q-.555 0-1.032.387t-.754 1.19-.278 2.044q0 1.2.258 1.955.258.744.685 1.091t.913.348q.516 0 1.071-.278.566-.278 1.042-.844.476-.575.724-1.448l.387 1.488q-.188.665-.704 1.29-.516.615-1.27 1.022-.754.397-1.687.397-1.12 0-1.875-.635-.754-.645-1.14-1.776-.378-1.131-.378-2.62zm24.458-4.474q0 1.448-.576 2.43-.575.973-1.597 1.479-1.022.496-2.342.496h-2.996v-1.568q.337-.01.923-.02.595-.01 1.16-.01.576-.01.864-.01 1.012 0 1.538-.446.535-.446.734-1.091.208-.655.208-1.26 0-.616-.208-1.25-.199-.645-.734-1.082-.526-.437-1.538-.437h-1.022l-1.082-.02v12.036q-.228.04-.506.06-.267.02-.506.02-.218 0-.496-.02-.268-.02-.496-.06V270.93l.13-.12q1.11-.019 2.073-.039.962-.03 1.954-.03 1.31 0 2.332.487t1.597 1.458q.586.972.586 2.44zm7.54-.566q0 .397-.109.923-.109.516-.357.903-.188-.04-.387-.05-.198-.02-.397-.03-.585 0-1.022.248-.426.238-.724.625t-.506.834q-.198.446-.327.863l-.288-.367q.02-.685.188-1.4t.526-1.319q.367-.605.943-.972.585-.367 1.438-.367.248 0 .496.03.249.02.526.079zm-6.101.923q.07-.268.277-.576.219-.307.447-.466.952.228 1.409 1.002.466.764.536 1.915v7.014q-.407.08-.963.08-.565 0-.972-.08v-6.846q0-.783-.238-1.29-.229-.515-.496-.753zm15.251 3.998q0 1.508-.487 2.67-.476 1.16-1.428 1.825-.943.655-2.352.655t-2.351-.665-1.42-1.826q-.475-1.17-.475-2.659 0-1.508.476-2.669.486-1.16 1.429-1.816.952-.664 2.341-.664 1.419 0 2.362.664.952.665 1.428 1.826t.477 2.66zm-6.51 0q0 .933.2 1.776.198.834.684 1.36.496.515 1.379.515.873 0 1.36-.516.485-.525.684-1.359.198-.843.198-1.776t-.198-1.766q-.199-.843-.685-1.37-.486-.535-1.359-.535-.883 0-1.38.536-.485.526-.684 1.37-.198.832-.198 1.765zm14.198-1.17q.03-.635-.119-1.2-.139-.566-.546-.924-.396-.357-1.14-.357-.963 0-1.519.933t-.555 2.778q0 1.806.605 2.649.615.833 1.697.833.694 0 1.3-.317.615-.318 1.14-.705.258.16.506.506.248.338.328.665-.675.655-1.588 1.062-.912.397-1.974.397t-1.826-.407q-.764-.417-1.25-1.121-.486-.715-.714-1.627-.228-.923-.228-1.935 0-1.826.595-2.977t1.538-1.686q.952-.546 1.994-.546.913 0 1.578.278.674.277 1.11.714.447.437.656.962.218.516.218 1.012 0 .487-.228.794-.228.298-.764.298-.228 0-.417-.02t-.397-.06zm4.554 1.775v-1.418h4.94v-.258q0-.715-.208-1.31-.198-.605-.655-.962-.446-.358-1.18-.358-1.052 0-1.578.883-.526.874-.526 2.392v.595q0 .962.199 1.736.208.764.714 1.21.506.437 1.429.437.764 0 1.458-.218.695-.228 1.33-.556.248.229.407.596.168.357.208.654-.704.506-1.687.814-.972.308-2.004.308-1.16 0-1.944-.417-.784-.427-1.25-1.141-.467-.724-.665-1.647t-.199-1.935q0-1.478.457-2.639.466-1.17 1.379-1.845t2.272-.675q1.28 0 2.153.575.873.566 1.32 1.528.446.953.446 2.133 0 .457-.03.794-.03.328-.109.724zm8.463 3.552q.02-.337.209-.734.198-.407.446-.625.625.338 1.34.615.724.268 1.458.268.844 0 1.33-.367.496-.367.506-.933 0-.436-.328-.803t-.962-.595l-1.15-.427q-.686-.248-1.261-.615-.575-.377-.923-.913-.337-.536-.337-1.29 0-.893.456-1.538t1.24-.992q.794-.357 1.777-.357.793 0 1.686.208.903.209 1.508.496.01.357-.148.784-.16.417-.427.655-.506-.238-1.2-.437-.695-.208-1.44-.208-.664 0-1.08.337-.417.328-.417.874 0 .426.317.714.327.288.962.526l1.22.456q1.112.407 1.807 1.121.704.705.704 1.846 0 1.369-1.062 2.153-1.061.774-2.788.774-1.042 0-1.925-.298-.873-.298-1.518-.695zm8.67 0q.02-.337.21-.734.198-.407.446-.625.625.338 1.34.615.723.268 1.458.268.843 0 1.33-.367.495-.367.505-.933 0-.436-.327-.803t-.963-.595l-1.15-.427q-.685-.248-1.26-.615-.576-.377-.923-.913-.338-.536-.338-1.29 0-.893.457-1.538t1.24-.992q.794-.357 1.776-.357.794 0 1.687.208.902.209 1.508.496.01.357-.15.784-.158.417-.426.655-.506-.238-1.2-.437-.695-.208-1.439-.208-.665 0-1.081.337-.417.328-.417.874 0 .426.317.714.328.288.963.526l1.22.456q1.111.407 1.806 1.121.704.705.704 1.846 0 1.369-1.061 2.153-1.062.774-2.788.774-1.042 0-1.925-.298-.873-.298-1.518-.695z" aria-label="Standard Process"/><g clip-path="url(#b)" transform="translate(-79.95 -58.521) scale(.26458)"><g clip-path="url(#c)"><g clip-path="url(#d)"><g clip-path="url(#e)"><path transform="matrix(1.003 0 0 1 1772.6 1137.6)" d="M78.243-117.55c24.708 11.231 46.422 31.073 54.658 55.032 8.236 23.96 2.62 52.786-4.118 79.366-6.364 26.58-13.852 51.288-29.201 69.632-15.349 18.719-38.56 30.698-64.391 43.052-26.206 11.98-55.032 24.334-79.366 18.344-24.708-5.615-44.55-29.575-64.018-53.534-19.092-23.585-37.436-47.17-44.175-74.125-6.364-26.955-1.123-57.278 11.98-83.484s34.067-47.92 58.776-58.776c24.708-10.857 53.16-11.231 80.864-10.108 27.703 1.123 54.658 3.744 78.992 14.6z" fill="url(#f)"/><path d="M1657.447 1089.102a27.666 27.666 0 0 1-.374-2.679 29.754 29.754 0 0 1-.125-2.553c0-.79.042-1.64.125-2.554.083-.955.208-1.89.374-2.803h56.933c.5 1.578.75 3.239.75 4.983 0 2.035-.583 3.488-1.749 4.36-1.123.83-2.913 1.246-5.368 1.246h-8.677c-.791 0-1.956-.02-3.496-.062-1.54-.042-2.747-.063-3.62-.063h-12.61c-.833 0-2.019.021-3.559.063a137.71 137.71 0 0 1-3.558.062zm22.162 9.094v-4.547c.042-1.37.062-2.928.062-4.672v-5.17h12.486v9.843c.041 1.329.062 2.845.062 4.547v65.404a32.04 32.04 0 0 1-3.184.374 42.546 42.546 0 0 1-3.12.124c-.916 0-1.957-.041-3.122-.124a35.29 35.29 0 0 1-3.184-.374zm110.928 22.861c0 4.859-.312 9.51-.936 13.953-.624 4.443-1.873 8.596-3.745 12.458-1.873 3.862-4.682 7.33-8.428 10.402-1.83 1.495-4.016 2.7-6.555 3.613a45.906 45.906 0 0 1-7.803 2.055c-2.663.416-5.077.623-7.241.623-3.371 0-6.43-.02-9.177-.062a593.92 593.92 0 0 1-8.303-.187c-2.788-.083-5.993-.166-9.613-.25l-.812-.747V1079.2l.812-.747c3.62-.125 6.825-.208 9.613-.25 2.83-.082 5.598-.124 8.303-.124a612.18 612.18 0 0 1 9.177-.062c2.164 0 4.578.228 7.24.685 2.665.415 5.265 1.1 7.804 2.056 2.58.913 4.765 2.118 6.555 3.612 3.704 3.073 6.493 6.54 8.366 10.402 1.872 3.862 3.12 8.015 3.745 12.458.665 4.402.998 9.012.998 13.828zm-13.047 0c0-3.779-.25-7.579-.748-11.399-.5-3.862-1.498-7.412-2.997-10.651-1.498-3.28-3.683-5.897-6.555-7.848-2.871-1.952-6.7-2.928-11.486-2.928-2.622 0-5.077-.02-7.366-.062a434.1 434.1 0 0 0-7.866-.063v65.84c2.955-.041 5.577-.041 7.866 0 2.289.042 4.744.063 7.366.063 4.786 0 8.615-.997 11.486-2.99 2.872-1.993 5.057-4.61 6.555-7.849s2.497-6.79 2.997-10.65a89.39 89.39 0 0 0 .748-11.462zm86.589-17.691c0 3.862-.708 7.33-2.123 10.402-1.373 3.031-3.287 5.606-5.744 7.724a23.678 23.678 0 0 1-8.24 4.61c2.04.705 3.787 2.034 5.245 3.986 1.456 1.91 2.642 4.07 3.557 6.478l5.681 15.012c.957 2.533 1.832 4.443 2.623 5.73.832 1.288 1.81 2.367 2.933 3.24-.832 1.245-2.08 2.221-3.745 2.927-1.665.664-3.267.997-4.807.997-2.372 0-4.12-.665-5.244-1.994s-2.164-3.26-3.121-5.792l-6.43-17.254c-1.082-2.949-2.518-5.399-4.308-7.35-1.747-1.994-4.599-2.99-8.551-2.99h-15.857v-9.904c1.83-.083 3.933-.167 6.305-.25 2.414-.083 4.786-.124 7.116-.124 2.331-.042 4.35-.062 6.056-.062 4.162 0 7.366-.769 9.614-2.305 2.247-1.537 3.807-3.468 4.681-5.793a20.884 20.884 0 0 0 1.312-7.288c0-2.533-.438-4.962-1.312-7.288-.874-2.367-2.434-4.298-4.681-5.793-2.248-1.494-5.452-2.242-9.614-2.242h-9.552a862.983 862.983 0 0 1-4.744-.124v75.68c-.957.167-1.997.291-3.12.374a44.098 44.098 0 0 1-3.247.125c-.916 0-1.935-.042-3.06-.125a32.185 32.185 0 0 1-3.12-.373v-84.402l.811-.748c4.662-.083 9.198-.166 13.61-.25a466.62 466.62 0 0 1 12.984-.186c5.785 0 10.779.976 14.982 2.928s7.43 4.817 9.676 8.596c2.289 3.778 3.434 8.388 3.434 13.828zm-200.856 73.74h-5.588v15.094h-1.377v-15.094h-5.576v-1.173h12.54zm7.077 4.145a5.01 5.01 0 0 0-.907-.078c-.836 0-1.545.234-2.127.704-.575.461-.985 1.136-1.232 2.022v8.301h-1.332v-12.089h1.31l.022 1.922c.71-1.43 1.848-2.145 3.415-2.145.374 0 .668.048.885.145zm9.316 10.949c-.135-.38-.22-.942-.258-1.687a4.708 4.708 0 0 1-1.803 1.419 5.53 5.53 0 0 1-2.306.491c-1.165 0-2.109-.324-2.833-.972-.717-.648-1.075-1.467-1.075-2.458 0-1.177.489-2.108 1.467-2.793.985-.685 2.355-1.028 4.11-1.028h2.43v-1.374c0-.864-.27-1.542-.807-2.033-.53-.5-1.306-.749-2.33-.749-.932 0-1.705.238-2.317.715-.612.477-.918 1.05-.918 1.72l-1.344-.01c0-.961.448-1.792 1.344-2.492.896-.707 1.997-1.061 3.303-1.061 1.351 0 2.415.339 3.191 1.016.784.67 1.187 1.61 1.21 2.816v5.72c0 1.17.123 2.045.369 2.626v.134zm-4.21-.96c.895 0 1.694-.217 2.396-.649.709-.432 1.224-1.01 1.545-1.732v-2.659h-2.396c-1.336.015-2.381.26-3.135.738-.754.469-1.131 1.117-1.131 1.944 0 .677.25 1.24.75 1.687.508.447 1.164.67 1.97.67zm8.308-5.196c0-1.877.418-3.37 1.254-4.48.843-1.118 1.986-1.676 3.426-1.676 1.635 0 2.882.644 3.74 1.933v-6.782h1.333v17.16h-1.254l-.056-1.608c-.859 1.221-2.12 1.832-3.785 1.832-1.396 0-2.523-.559-3.382-1.676-.85-1.124-1.276-2.64-1.276-4.547zm1.355.234c0 1.542.31 2.76.93 3.654.619.886 1.492 1.33 2.62 1.33 1.649 0 2.82-.727 3.515-2.18v-5.675c-.694-1.571-1.859-2.357-3.493-2.357-1.128 0-2.005.443-2.632 1.33-.627.878-.94 2.178-.94 3.899zm16.617 6.145c-1.03 0-1.963-.253-2.8-.76a5.203 5.203 0 0 1-1.936-2.11c-.463-.91-.694-1.926-.694-3.051v-.48c0-1.162.224-2.209.671-3.14.456-.931 1.086-1.66 1.893-2.19a4.639 4.639 0 0 1 2.62-.804c1.47 0 2.635.503 3.493 1.508.866.998 1.3 2.365 1.3 4.1v.75h-8.645v.256c0 1.37.392 2.514 1.176 3.43.791.909 1.784 1.363 2.978 1.363.717 0 1.348-.13 1.893-.39.552-.262 1.052-.679 1.5-1.252l.84.637c-.986 1.422-2.415 2.134-4.289 2.134zm-.246-11.396c-1.008 0-1.859.37-2.553 1.107-.687.737-1.105 1.728-1.254 2.971h7.267v-.145c-.037-1.162-.37-2.108-.997-2.838s-1.448-1.095-2.463-1.095zm7.715 11.173v-16.267h4.557c1.336 0 2.534.305 3.594.916 1.06.603 1.885 1.471 2.475 2.603.597 1.132.896 2.421.896 3.866v1.497c0 1.453-.295 2.741-.885 3.866a6.275 6.275 0 0 1-2.497 2.603c-1.067.611-2.295.916-3.684.916zm1.377-15.094v13.932h3.09c1.717 0 3.095-.566 4.132-1.698 1.038-1.14 1.557-2.678 1.557-4.614v-1.43c0-1.87-.512-3.367-1.535-4.492-1.022-1.125-2.37-1.69-4.042-1.698zm21.118 13.564c-.806 1.169-2.094 1.753-3.863 1.753-1.291 0-2.273-.372-2.945-1.117-.672-.752-1.015-1.862-1.03-3.33v-7.865h1.332v7.698c0 2.302.933 3.452 2.8 3.452 1.94 0 3.169-.8 3.684-2.402v-8.748h1.343v12.089h-1.299zm6.886-13.654v3.095h2.508v1.095h-2.508v8.055c0 .67.12 1.17.358 1.497.247.328.654.492 1.221.492.224 0 .586-.037 1.086-.112l.056 1.095c-.35.127-.829.19-1.433.19-.918 0-1.586-.264-2.004-.793-.418-.536-.628-1.322-.628-2.358v-8.066h-2.228v-1.095h2.228v-3.095zm9.126 13.262 3.538-10.167h1.445l-5.173 14.145-.269.626c-.664 1.467-1.69 2.201-3.08 2.201-.32 0-.664-.052-1.03-.156l-.01-1.107.694.067c.657 0 1.187-.163 1.59-.491.41-.32.757-.875 1.041-1.665l.594-1.631-4.569-11.988h1.467zm13.462-4.848h-4.737v6.77H1755v-16.267h5.296c1.74 0 3.099.42 4.076 1.262.978.842 1.467 2.019 1.467 3.531 0 1.043-.306 1.963-.918 2.76s-1.433 1.348-2.463 1.653l4.076 6.916v.145h-1.468zm-4.737-1.174h4.222c1.157 0 2.086-.327 2.788-.983.701-.655 1.053-1.504 1.053-2.547 0-1.147-.366-2.037-1.097-2.67s-1.76-.95-3.08-.95h-3.886zm17.575 8.167c-1.03 0-1.963-.253-2.8-.76a5.203 5.203 0 0 1-1.936-2.11c-.464-.91-.694-1.926-.694-3.051v-.48c0-1.162.223-2.209.671-3.14.455-.931 1.087-1.66 1.893-2.19a4.64 4.64 0 0 1 2.62-.804c1.47 0 2.635.503 3.493 1.508.866.998 1.299 2.365 1.299 4.1v.75h-8.644v.256c0 1.37.392 2.514 1.175 3.43.792.909 1.784 1.363 2.979 1.363.717 0 1.348-.13 1.892-.39.553-.262 1.053-.679 1.501-1.252l.84.637c-.986 1.422-2.415 2.134-4.29 2.134zm-.246-11.396c-1.008 0-1.859.37-2.553 1.107-.687.737-1.105 1.728-1.254 2.971h7.267v-.145c-.037-1.162-.37-2.108-.996-2.838-.628-.73-1.448-1.095-2.464-1.095zm8.364 11.173v-10.994h-2.005v-1.095h2.005v-1.464c0-1.236.312-2.186.94-2.849.634-.662 1.515-.994 2.643-.994.507 0 .98.063 1.422.19l-.102 1.117a5.231 5.231 0 0 0-1.22-.134c-.739 0-1.314.231-1.724.693-.41.454-.616 1.102-.616 1.944v1.497h2.889v1.095h-2.89v10.994zm14.421-1.53c-.805 1.169-2.093 1.753-3.863 1.753-1.29 0-2.273-.372-2.945-1.117-.671-.752-1.015-1.862-1.03-3.33v-7.865h1.333v7.698c0 2.302.933 3.452 2.8 3.452 1.94 0 3.168-.8 3.683-2.402v-8.748h1.343v12.089h-1.299zm6.084-10.559.044 2.067c.456-.745 1.023-1.31 1.703-1.698a4.395 4.395 0 0 1 2.25-.592c1.298 0 2.265.365 2.9 1.095.634.73.956 1.824.963 3.284v7.933h-1.333v-7.944c-.007-1.08-.238-1.884-.693-2.413-.448-.529-1.169-.793-2.162-.793-.828 0-1.564.26-2.206.782-.634.514-1.104 1.21-1.41 2.089v8.279h-1.333v-12.09zm10.783 5.933c0-1.877.418-3.37 1.254-4.48.844-1.118 1.987-1.676 3.427-1.676 1.634 0 2.881.644 3.74 1.933v-6.782h1.332v17.16h-1.254l-.056-1.608c-.858 1.221-2.12 1.832-3.784 1.832-1.396 0-2.524-.559-3.382-1.676-.85-1.124-1.277-2.64-1.277-4.547zm1.355.234c0 1.542.31 2.76.93 3.654.619.886 1.493 1.33 2.62 1.33 1.65 0 2.821-.727 3.516-2.18v-5.675c-.695-1.571-1.86-2.357-3.494-2.357-1.127 0-2.004.443-2.632 1.33-.626.878-.94 2.178-.94 3.899zm11.804 5.118c0-.261.082-.48.247-.66.171-.186.407-.279.705-.279s.534.093.705.28c.172.178.257.398.257.659s-.085.476-.257.648c-.171.163-.406.245-.705.245s-.534-.082-.705-.245a.898.898 0 0 1-.247-.648zm10.073-.101c.932 0 1.713-.26 2.34-.782.635-.529.978-1.21 1.03-2.045h1.288a3.804 3.804 0 0 1-.695 2.023 4.348 4.348 0 0 1-1.702 1.419 5.085 5.085 0 0 1-2.262.513c-1.59 0-2.85-.55-3.784-1.653-.926-1.103-1.388-2.585-1.388-4.447v-.402c0-1.192.209-2.246.626-3.162.418-.916 1.016-1.624 1.792-2.123.784-.499 1.698-.748 2.743-.748 1.33 0 2.423.394 3.282 1.184.865.79 1.328 1.829 1.388 3.117h-1.288c-.06-.946-.403-1.71-1.03-2.29-.62-.581-1.404-.872-2.352-.872-1.208 0-2.15.436-2.82 1.307-.665.872-.998 2.093-.998 3.665v.391c0 1.542.333 2.745.997 3.609.672.864 1.616 1.296 2.832 1.296zm6.594-5.318c0-1.162.224-2.209.671-3.14.456-.93 1.095-1.653 1.916-2.167.828-.522 1.765-.782 2.81-.782 1.612 0 2.92.566 3.92 1.698 1 1.125 1.5 2.618 1.5 4.48v.28c0 1.169-.228 2.223-.684 3.161-.448.931-1.082 1.65-1.903 2.157-.82.506-1.758.76-2.81.76-1.606 0-2.912-.563-3.92-1.688-1-1.132-1.5-2.629-1.5-4.491zm1.344.369c0 1.445.373 2.633 1.12 3.564.753.923 1.74 1.385 2.956 1.385 1.208 0 2.187-.462 2.933-1.385.754-.931 1.13-2.157 1.13-3.676v-.257c0-.924-.17-1.77-.514-2.536-.343-.768-.825-1.36-1.445-1.777-.619-.424-1.329-.637-2.127-.637-1.194 0-2.168.47-2.923 1.408-.753.931-1.13 2.153-1.13 3.665zm13.458-6.235.045 1.966c.448-.73 1.009-1.277 1.68-1.642.672-.365 1.418-.547 2.24-.547 1.91 0 3.124.782 3.64 2.346a4.505 4.505 0 0 1 1.734-1.732 4.784 4.784 0 0 1 2.396-.614c2.598 0 3.924 1.415 3.976 4.245v8.067h-1.344v-7.966c-.007-1.08-.243-1.88-.706-2.402-.455-.522-1.201-.782-2.239-.782-.963.015-1.776.327-2.44.938-.665.603-1.035 1.34-1.11 2.212v8h-1.343v-8.067c-.007-1.035-.254-1.806-.739-2.312-.478-.514-1.217-.771-2.218-.771-.843 0-1.567.242-2.172.726-.604.476-1.052 1.188-1.344 2.134v8.29h-1.342v-12.09z" fill="#fff"/></g></g></g></g></svg>